<svg width="34" height="32" viewBox="0 0 34 32" fill="none" xmlns="http://www.w3.org/2000/svg">
<path fill-rule="evenodd" clip-rule="evenodd" d="M0 15.75C0 19.9272 1.77303 23.9332 4.92903 26.8869C8.08504 29.8406 12.3655 31.5 16.8288 31.5C21.292 31.5 25.5725 29.8406 28.7285 26.8869C31.8845 23.9332 33.6575 19.9272 33.6575 15.75C33.6575 11.5728 31.8845 7.56677 28.7285 4.61307C25.5725 1.65937 21.292 0 16.8288 0C12.3655 0 8.08504 1.65937 4.92903 4.61307C1.77303 7.56677 0 11.5728 0 15.75ZM30.7726 15.75C30.7726 19.2111 29.3035 22.5304 26.6885 24.9777C24.0736 27.4251 20.5269 28.8 16.8288 28.8C13.1306 28.8 9.58396 27.4251 6.96899 24.9777C4.35401 22.5304 2.88493 19.2111 2.88493 15.75C2.88493 12.2889 4.35401 8.96961 6.96899 6.52226C9.58396 4.07491 13.1306 2.7 16.8288 2.7C20.5269 2.7 24.0736 4.07491 26.6885 6.52226C29.3035 8.96961 30.7726 12.2889 30.7726 15.75Z" fill="#1E90FF"/>
<path fill-rule="evenodd" clip-rule="evenodd" d="M9.61523 15.7499C9.61523 23.8895 12.4829 30.5999 16.8276 30.5999C21.1723 30.5999 24.0399 23.8895 24.0399 15.7499C24.0399 7.6103 21.1723 0.899902 16.8276 0.899902C12.4829 0.899902 9.61523 7.6103 9.61523 15.7499ZM21.155 15.7499C21.155 22.5215 18.8566 27.8999 16.8276 27.8999C14.7985 27.8999 12.5002 22.5215 12.5002 15.7499C12.5002 8.9783 14.7985 3.5999 16.8276 3.5999C18.8566 3.5999 21.155 8.9783 21.155 15.7499Z" fill="#1E90FF"/>
<path d="M4.52344 7.59059L6.45826 5.58899C6.65059 5.75099 6.86023 5.91299 7.08333 6.06959C9.52783 7.78319 13.4302 8.84159 17.6903 8.84159C21.3272 8.84159 24.7141 8.07299 27.174 6.75719C27.7664 6.44039 28.2934 6.09659 28.7492 5.73119L30.6225 7.78499C30.0262 8.26199 29.3512 8.70299 28.6068 9.09899C25.6911 10.6614 21.8099 11.5398 17.6903 11.5398C12.8397 11.5398 8.33347 10.3194 5.35237 8.22959C5.06572 8.02862 4.78912 7.81539 4.52344 7.59059Z" fill="#1E90FF"/>
<path d="M4.52344 23.9382L6.45826 25.9398C6.65059 25.776 6.86023 25.6158 7.08333 25.4592C9.52783 23.7456 13.4302 22.6872 17.6903 22.6872C21.3272 22.6872 24.7141 23.4558 27.174 24.7716C27.7664 25.0884 28.2934 25.4322 28.7492 25.7976L30.6225 23.7438C29.9958 23.2479 29.321 22.808 28.6068 22.4298C25.6911 20.8674 21.8099 19.989 17.6903 19.989C12.8397 19.989 8.33347 21.2094 5.35237 23.2992C5.06572 23.5002 4.78911 23.7134 4.52344 23.9382Z" fill="#1E90FF"/>
<path d="M0.960938 17.0999V14.3999H32.6952V17.0999H0.960938Z" fill="#1E90FF"/>
</svg>
